<svg xmlns="http://www.w3.org/2000/svg" xmlns:xlink="http://www.w3.org/1999/xlink" version="1.1" x="0px" y="0px" viewBox="0 0 100 100" enable-background="new 0 0 100 100" xml:space="preserve"><path fill-rule="evenodd" clip-rule="evenodd" d="M72.839,13.551c1.103,0.868,2.158,1.83,3.167,2.886  c7.296,7.25,10.944,15.988,10.944,26.217c0,10.182-3.648,18.874-10.944,26.077c-0.117,0.164-0.234,0.387-0.352,0.668  c-0.282,0.165-0.54,0.399-0.774,0.704L53.977,92.097c-2.698,3.073-5.361,3.073-7.988,0L24.346,69.223  c-0.117-0.164-0.234-0.328-0.352-0.492C16.698,61.528,13.05,52.836,13.05,42.654c0-10.229,3.648-18.967,10.944-26.217  c1.009-1.056,2.088-2.018,3.237-2.886c6.452-5.302,14.064-7.953,22.839-7.953C58.751,5.598,66.34,8.249,72.839,13.551z   M64.182,22.173c1.361,1.524,1.994,3.131,1.9,4.821c-0.023,5.771-0.023,13.959,0,24.563c0,1.877-0.375,3.46-1.126,4.751  c-0.61,0.962-1.513,1.783-2.71,2.463c0.234,0.352,0.352,0.727,0.352,1.125v2.604c0,0.751-0.352,1.384-1.056,1.9  c-0.68,0.563-1.501,0.844-2.463,0.844c-1.009,0-1.877-0.281-2.604-0.844c-0.634-0.516-0.95-1.149-0.95-1.9v-2.604  c0-0.188,0.023-0.363,0.07-0.528H44.827c0.047,0.165,0.07,0.34,0.07,0.528v2.604c0,0.751-0.363,1.384-1.091,1.9  c-0.681,0.563-1.502,0.844-2.463,0.844c-0.963,0-1.795-0.281-2.499-0.844c-0.681-0.516-1.021-1.149-1.021-1.9v-2.604  c0-0.352,0.07-0.668,0.211-0.95c-1.267-0.68-2.264-1.537-2.991-2.569c-0.751-1.125-1.126-2.428-1.126-3.906  c0-11.425,0.012-20,0.035-25.724c0-1.994,0.669-3.66,2.006-4.997c1.36-1.267,3.038-1.924,5.032-1.971c1.525,0,4.505,0,8.938,0  c3.801,0.047,6.851,0.047,9.149,0C61.003,19.733,62.704,20.531,64.182,22.173z M61.155,27.17c-0.587-0.469-1.267-0.704-2.041-0.704  c-6.123-0.047-12.199-0.047-18.229,0c-0.845,0-1.549,0.234-2.111,0.704c-0.61,0.446-0.927,0.986-0.95,1.619  c-0.047,0.563-0.07,1.126-0.07,1.689c0,0.633,0.023,1.314,0.07,2.041c0,0.235,0,0.458,0,0.669c0,0.704,0.34,1.267,1.021,1.689  c0.539,0.399,1.149,0.61,1.83,0.633c0.094,0,0.199,0,0.316,0h8.938c2.088,0,3.637,0,4.646,0c1.807,0,3.319,0,4.539,0h0.388  c0.703-0.07,1.325-0.305,1.864-0.704c0.399-0.375,0.669-0.774,0.81-1.196c0.047-0.211,0.07-0.434,0.07-0.669  c0-0.117,0-0.223,0-0.317c-0.047-1.103-0.082-2.381-0.105-3.835C62.094,28.156,61.766,27.616,61.155,27.17z M82.059,42.548  c0-8.798-3.144-16.34-9.431-22.627C66.34,13.634,58.774,10.49,49.93,10.49c-8.798,0-16.341,3.144-22.628,9.431  s-9.431,13.83-9.431,22.627s3.144,16.34,9.431,22.627c6.287,6.288,13.83,9.431,22.628,9.431c8.845,0,16.41-3.144,22.698-9.431  C78.915,58.889,82.059,51.346,82.059,42.548z M61.155,54.689c0.657-0.61,0.962-1.349,0.915-2.217c0-0.892-0.305-1.643-0.915-2.252  c-0.587-0.516-1.325-0.774-2.217-0.774c-0.915,0-1.654,0.282-2.217,0.844c-0.587,0.634-0.88,1.373-0.88,2.217  c0.023,0.845,0.316,1.572,0.88,2.182c0.634,0.633,1.372,0.95,2.217,0.95C59.83,55.639,60.568,55.322,61.155,54.689z M44.053,52.507  c0-0.962-0.305-1.724-0.915-2.288c-0.587-0.516-1.337-0.774-2.252-0.774c-0.845,0-1.596,0.282-2.252,0.844  c-0.54,0.634-0.81,1.373-0.81,2.217s0.316,1.572,0.95,2.182c0.634,0.681,1.372,0.998,2.217,0.95c0.798,0,1.514-0.317,2.146-0.95  C43.748,54.079,44.053,53.352,44.053,52.507z"/></svg>