<svg xmlns="http://www.w3.org/2000/svg" xmlns:xlink="http://www.w3.org/1999/xlink" version="1.1" x="0px" y="0px" viewBox="0 0 100 100" style="enable-background:new 0 0 100 100;" xml:space="preserve"><path d="M74,51.5c-0.5-2.7-1.7-4.5-3.5-5.1c-2.2-0.8-5,0.5-7.3,3.2c0-1.5-0.1-2.5-0.1-2.6v-3.6c0-0.2-0.2-0.4-0.4-0.4H26.3  c-0.2,0-0.4,0.2-0.4,0.4v3.6c0,0.4-0.6,11.3,2.1,20.1c0.2,0.5,0.3,1.3,0.6,2.1c0.7,2.7,1.6,6.3,2.7,8c0.4,0.6,1.4,1.6,2.2,1.9  c1.5,0.6,6.8,0.8,11,0.8c0,0,0,0,0,0c4.2,0,9.6-0.2,11-0.8c0.7-0.3,1.8-1.3,2.2-1.9c1.1-1.7,2-5.3,2.7-8c0.1-0.3,0.2-0.7,0.2-1  c0,0,0,0,0,0c0.3,0.2,0.6,0.3,0.9,0.5c0.5,0.2,1,0.3,1.6,0.3c1.5,0,3.1-0.6,4.7-1.7c2.3-1.6,4.1-4.2,5.1-7.1  C74.1,57.2,74.4,54.1,74,51.5z M60.1,66.9c-0.2,0.5-0.4,1.3-0.6,2.2c-0.6,2.5-1.6,6.2-2.6,7.7c-0.3,0.5-1.3,1.4-1.7,1.6  c-1.1,0.4-5.4,0.7-10.7,0.7c0,0,0,0,0,0c-5.3,0-9.6-0.3-10.7-0.7c-0.5-0.2-1.4-1.1-1.7-1.6c-1-1.6-2-5.3-2.6-7.7  c-0.2-0.9-0.4-1.7-0.6-2.2c-2.7-8.8-2.1-19.7-2.1-19.8c0,0,0,0,0,0v-3.2h35.4v3.2c0,0,0,0,0,0C62.2,47.2,62.8,58.2,60.1,66.9z   M72.2,59.9c-2.1,6-7.2,9.2-10.4,8.1c-0.3-0.1-0.5-0.2-0.7-0.4c-0.1-0.1-0.2-0.1-0.3-0.1c0-0.2,0.1-0.3,0.1-0.4  c1.7-5.6,2.1-12.1,2.2-16.1c0,0,0,0,0.1-0.1c2.2-3,4.9-4.5,7-3.8C73.3,48.3,74.3,54,72.2,59.9z M36.5,38.1c-1.7-2.8-1.8-6.3-0.2-8.9  c1.6-2.6,1.6-5.9,0.1-8.5c-0.1-0.2-0.1-0.5,0.2-0.7c0.2-0.1,0.5-0.1,0.7,0.2c1.7,2.9,1.7,6.5-0.1,9.5c0,0,0,0,0,0  c-1.4,2.3-1.4,5.4,0.2,7.8c0.1,0.2,0.1,0.5-0.2,0.7c-0.1,0-0.2,0.1-0.3,0.1C36.8,38.3,36.6,38.2,36.5,38.1z M43.9,38.1  c-1.7-2.8-1.8-6.3-0.2-8.9c1.6-2.6,1.6-5.9,0.1-8.5c-0.1-0.2-0.1-0.5,0.2-0.7c0.2-0.1,0.5-0.1,0.7,0.2c1.7,2.9,1.7,6.5-0.1,9.5  c0,0,0,0,0,0c-1.4,2.3-1.4,5.4,0.2,7.8c0.1,0.2,0.1,0.5-0.2,0.7c-0.1,0-0.2,0.1-0.3,0.1C44.2,38.3,44,38.2,43.9,38.1z M51.3,38.1  c-1.7-2.8-1.8-6.3-0.2-8.9c1.6-2.6,1.6-5.9,0.1-8.5c-0.1-0.2-0.1-0.5,0.2-0.7c0.2-0.1,0.5-0.1,0.7,0.2c1.7,2.9,1.7,6.5-0.1,9.5  c0,0,0,0,0,0c-1.4,2.3-1.4,5.4,0.2,7.8c0.1,0.2,0.1,0.5-0.2,0.7c-0.1,0-0.2,0.1-0.3,0.1C51.6,38.3,51.4,38.2,51.3,38.1z"/></svg>