<svg xmlns="http://www.w3.org/2000/svg" xmlns:xlink="http://www.w3.org/1999/xlink" xml:space="preserve" version="1.1" style="shape-rendering:geometricPrecision;text-rendering:geometricPrecision;image-rendering:optimizeQuality;" viewBox="0 0 333 330" x="0px" y="0px" fill-rule="evenodd" clip-rule="evenodd"><defs><style type="text/css">
   
    .str0 {stroke:salmon;stroke-width:16.6654}
    .str1 {stroke:salmon;stroke-width:13.3307;stroke-linecap:round;stroke-linejoin:round}
    .fil1 {fill:none}
    .fil0 {fill:salmon}
   
  </style></defs><g><path class="fil0" d="M78 119l177 0 0 100c0,22 -18,40 -41,40l-97 0c-21,0 -39,-17 -39,-38l0 -102z"/><path class="fil0" d="M71 275l194 0 0 13c0,6 -5,11 -12,11l-171 0c-6,0 -11,-5 -11,-11l0 -13z"/><path class="fil1 str0" d="M247 142l33 0c16,0 29,13 29,29l0 7c0,17 -14,32 -31,32l-31 0c-8,0 -15,-7 -15,-16l0 -36c0,-9 7,-16 15,-16z"/><path class="fil1 str1" d="M135 98c19,-7 27,-21 8,-33 -16,-10 -11,-28 6,-34"/><path class="fil1 str1" d="M183 98c19,-7 26,-21 7,-33 -15,-10 -10,-28 7,-34"/></g></svg>