<svg xmlns="http://www.w3.org/2000/svg" xmlns:xlink="http://www.w3.org/1999/xlink" version="1.1" x="0px" y="0px" viewBox="0 0 90 90" enable-background="new 0 0 90 90" xml:space="preserve"><g display="none"><g display="inline"><path fill="salmon" d="M28.771,13.616c-4.18,0-8.132-0.335-11.129-0.943c-1.576-0.32-2.85-0.71-3.785-1.159    c-2.095-1.005-2.535-2.369-2.535-3.336c0-0.967,0.44-2.331,2.535-3.336c0.936-0.448,2.209-0.839,3.785-1.159    c2.997-0.608,6.949-0.943,11.129-0.943c4.178,0,8.13,0.335,11.129,0.943c1.575,0.32,2.848,0.71,3.785,1.159    c2.094,1.005,2.533,2.369,2.533,3.336c0,0.967-0.439,2.331-2.533,3.336c-0.938,0.449-2.21,0.839-3.785,1.159    C36.901,13.281,32.949,13.616,28.771,13.616z M19.506,8.177c2.231,0.378,5.358,0.68,9.266,0.68c3.906,0,7.032-0.302,9.265-0.68    c-2.232-0.378-5.358-0.68-9.265-0.68C24.864,7.498,21.737,7.799,19.506,8.177z"/></g><path fill="salmon" display="inline" d="M86.379,47.58c-0.633-7.178-5.891-20.167-20.959-26.626c-9.631-4.634-26.491-2.004-26.491-2.004   l0.004,0.016c-0.002-0.003-0.002-0.006-0.004-0.009c-1.078,0.181-2.148,0.408-3.189,0.671c-6.073-3.535-13.36-3.544-17.693-3.119   c-1.885,0.181-3,2.194-2.175,3.897l3.67,7.523c-4.078,3.553-7.16,7.904-8.891,12.753l-4.478-0.019   c-1.505-0.009-2.729,1.215-2.729,2.719v10.042c0,1.016,0.563,1.939,1.459,2.41l5.81,3.029c2.429,6.697,7.459,12.445,14.093,16.404   l1.693,11.17l8.838-0.453l4.759,2.764l0.97-8.006c1.76,0.219,3.545,0.303,5.375,0.326c2.617,0.035,6.4-0.318,10.275-0.846   l0.939,6.215l6.4-1.869l4.76,2.764c0,0,2.926-6.42,5.16-11.4C84.91,69.48,87.289,57.912,86.379,47.58z M25.326,45.406   c-2.258,0-4.079-1.824-4.079-4.08c0-2.257,1.821-4.079,4.079-4.079c2.256,0,4.078,1.821,4.078,4.079   C29.404,43.583,27.582,45.406,25.326,45.406z M42.801,25.523v-0.007c-0.211-0.88,0.314-1.752,1.154-2.007   c7.383-1.364,14.111,0.684,15.867,1.292c0.65,0.24,1.285,0.502,1.9,0.791c0.895,0.419,1.238,1.515,0.742,2.37   c-0.434,0.757-1.385,1.057-2.172,0.682c-5.986-2.828-12.668-2.295-15.602-1.853C43.83,26.918,43.004,26.37,42.801,25.523z    M73.927,34.194c-0.915,1.687-2.614,2.793-5.388,3.088l0.048,0.61c2.179-0.237,3.888-0.927,4.965-2.006   c0.077,0.939,0.344,3.805-1.808,5.744c-1.741,1.571-4.621,2.212-8.395,1.256l-0.172,0.586c1.447,0.363,2.75,0.547,3.914,0.547   c0.982,0,1.863-0.133,2.641-0.395c-0.018,0.707,0.102,2.917-1.927,4.432c-1.73,1.287-4.512,1.585-7.903,0.462l-0.198,0.574   c1.6,0.532,3.03,0.801,4.282,0.801c0.218,0,0.428-0.015,0.639-0.031c-0.429,0.873-2.994,5.499-9.341,4.746   c-0.092-0.007-9.13-0.465-11.081-8.023c-0.094-0.436-0.269-1.656,0.068-2.067c0.072-0.089,0.162-0.133,0.278-0.135   c0.133,0.039,0.809,0.213,1.742-0.235c1.146-0.552,2.813-2.128,4.268-6.526c0.008-0.058,0.83-5.443,9.904-4.621   c0.09,0.015,8.753,1.239,13.139-5.971C74.031,27.971,75.479,31.331,73.927,34.194z"/></g><g><path fill="salmon" d="M38.095,15.15c-7.799-2.159-6.587-11.278-6.531-11.666l-0.875-0.126l-0.933-0.136c-0.016,0.112-0.392,2.78,0.354,5.788   c1.015,4.091,3.608,6.824,7.498,7.9c4.631,1.282,7.754,3.58,9.338,6.813c0.584-0.212,1.196-0.363,1.833-0.441   C47.328,20.055,44.266,16.858,38.095,15.15z"/><path fill="salmon" d="M37.075,58.902c-1.392,2.136-3.719,3.602-6.398,3.816c-0.43,0.913-0.678,1.928-0.678,3.002   c0,3.902,3.174,7.076,7.077,7.076c2.493,0,4.685-1.3,5.946-3.254c-0.586-1.149-0.924-2.446-0.924-3.822   c0-1.096,0.216-2.141,0.598-3.103C40.346,62.208,38.329,60.828,37.075,58.902z"/><path fill="salmon"  d="M44.151,62.753c-0.008,0-0.016-0.001-0.023-0.001c-0.42,0.904-0.662,1.907-0.662,2.969c0,3.902,3.175,7.076,7.077,7.076   c3.901,0,7.076-3.174,7.076-7.076c0-1.11-0.265-2.158-0.723-3.095c-2.37-0.4-4.406-1.784-5.67-3.723   C49.719,61.217,47.113,62.753,44.151,62.753z"/><path fill="salmon" d="M38.085,74.1c-0.211,0.67-0.326,1.383-0.326,2.121c0,3.901,3.174,7.076,7.076,7.076c3.902,0,7.077-3.175,7.077-7.076   c0-0.74-0.115-1.454-0.327-2.126c-0.343,0.042-0.688,0.071-1.042,0.071c-2.751,0-5.191-1.327-6.734-3.369   C42.458,72.584,40.419,73.819,38.085,74.1z"/><path  fill="salmon" d="M35.705,54.307c0-1.116,0.223-2.18,0.618-3.155c-0.122-0.242-0.253-0.479-0.401-0.704c-1.974-0.439-3.685-1.573-4.873-3.13   c-0.059-0.009-0.117-0.02-0.175-0.026c-1.472,2.486-4.174,4.163-7.267,4.163c-0.026,0-0.051-0.004-0.077-0.004   c-0.388,0.875-0.608,1.84-0.608,2.856c0,3.902,3.175,7.076,7.076,7.076c2.767,0,5.162-1.6,6.325-3.92   C35.928,56.486,35.705,55.423,35.705,54.307z"/><path fill="salmon" d="M30.943,47.176c-0.022,0.039-0.047,0.076-0.069,0.115c0.059,0.007,0.117,0.018,0.175,0.026   C31.014,47.271,30.979,47.224,30.943,47.176z"/><path fill="salmon" d="M52.087,51.445c0.324,0.896,0.51,1.855,0.51,2.861c0,1.116-0.223,2.18-0.617,3.156c1.162,2.32,3.557,3.92,6.324,3.92   c3.901,0,7.076-3.174,7.076-7.076c0-1.026-0.225-2-0.62-2.882c-2.501-0.169-4.702-1.429-6.137-3.31   C57.112,50.096,54.752,51.391,52.087,51.445z"/><path  fill="salmon" d="M65.334,51.454c-0.193,0-0.384-0.017-0.574-0.029c0.396,0.882,0.62,1.855,0.62,2.882   c0,3.902-3.175,7.076-7.076,7.076c-2.768,0-5.162-1.6-6.324-3.92c-0.205,0.506-0.458,0.988-0.753,1.44   c1.264,1.938,3.3,3.322,5.67,3.723c0.459,0.077,0.927,0.127,1.407,0.127c0.045,0,0.089-0.006,0.134-0.007   c4.594-0.072,8.312-3.826,8.312-8.439c0-1.021-0.191-1.994-0.524-2.9C65.932,51.437,65.635,51.454,65.334,51.454z"/><path fill="salmon"  d="M38.113,50.638c-0.654,1.071-1.038,2.325-1.038,3.669c0,3.902,3.174,7.076,7.076,7.076s7.077-3.174,7.077-7.076   c0-1.062-0.242-2.065-0.663-2.971c-2.534-0.409-4.691-1.945-5.941-4.082c-0.034-0.002-0.069-0.003-0.103-0.005   C43.045,49.223,40.734,50.528,38.113,50.638z"/><path fill="salmon" d="M44.624,47.254c-0.016-0.026-0.033-0.052-0.048-0.078c-0.018,0.024-0.037,0.049-0.055,0.073   C44.555,47.251,44.589,47.252,44.624,47.254z"/><path fill="salmon" d="M29.758,39.524c-0.002-0.004-0.005-0.007-0.007-0.012c-0.995,0.376-2.067,0.592-3.192,0.592c-2.688,0-5.1-1.185-6.76-3.051   c-1.962,1.259-3.269,3.455-3.269,5.955c0,3.902,3.174,7.077,7.076,7.077c2.918,0,5.429-1.776,6.51-4.305   c-0.51-1.086-0.803-2.294-0.803-3.571C29.313,41.27,29.474,40.369,29.758,39.524z"/><path fill="salmon" d="M29.765,39.508c-0.004,0.001-0.009,0.003-0.013,0.004c0.002,0.004,0.005,0.008,0.007,0.012   C29.76,39.519,29.763,39.513,29.765,39.508z"/><path fill="salmon" d="M61.134,40.104c-0.459,0-0.905-0.047-1.345-0.118c0.361,0.94,0.568,1.956,0.568,3.021c0,1.393-0.345,2.705-0.944,3.864   c1.265,1.932,3.444,3.213,5.921,3.213c3.902,0,7.076-3.175,7.076-7.077c0-2.937-1.798-5.459-4.351-6.529   C66.531,38.667,63.999,40.104,61.134,40.104z"/><path fill="salmon" d="M30.683,42.209c0,3.901,3.174,7.077,7.077,7.077c2.635,0,4.934-1.451,6.151-3.594c-0.284-0.844-0.445-1.745-0.445-2.684   c0-1.277,0.293-2.484,0.803-3.57c-0.168-0.393-0.372-0.766-0.605-1.119c-1.431,1.114-3.224,1.785-5.174,1.785   c-2.27,0-4.329-0.905-5.848-2.367c-0.271,0.247-0.555,0.479-0.854,0.691C31.092,39.524,30.683,40.818,30.683,42.209z"/><path fill="salmon" d="M30.044,31.658c0-2.204,0.856-4.208,2.244-5.713c-1.408-1.579-3.451-2.581-5.728-2.581c-4.238,0-7.685,3.448-7.685,7.685   s3.447,7.685,7.685,7.685c1.996,0,3.811-0.771,5.178-2.023C30.679,35.3,30.044,33.554,30.044,31.658z"/><path fill="salmon" d="M58.979,38.396c0.68,0.218,1.403,0.338,2.155,0.338c3.901,0,7.076-3.174,7.076-7.076c0-3.901-3.175-7.076-7.076-7.076   c-1.815,0-3.468,0.693-4.722,1.821c1.152,1.444,1.846,3.269,1.846,5.255c0,1.679-0.498,3.242-1.347,4.559   C57.723,36.815,58.425,37.551,58.979,38.396z"/><path fill="salmon" d="M41.366,31.658c0-1.986,0.693-3.811,1.846-5.255c-1.254-1.128-2.907-1.821-4.722-1.821c-3.902,0-7.076,3.175-7.076,7.076   c0,3.902,3.174,7.076,7.076,7.076c1.815,0,3.468-0.693,4.722-1.821C42.06,35.47,41.366,33.645,41.366,31.658z"/><path fill="salmon" d="M44.836,43.008c0,3.902,3.174,7.077,7.076,7.077s7.076-3.175,7.076-7.077c0-2.344-1.149-4.419-2.91-5.707   c-1.547,1.716-3.779,2.803-6.266,2.803c-1.383,0-2.686-0.34-3.838-0.932C45.257,40.279,44.836,41.594,44.836,43.008z"/><path fill="salmon" d="M42.735,31.658c0,3.902,3.175,7.076,7.077,7.076c3.901,0,7.076-3.174,7.076-7.076c0-3.901-3.175-7.076-7.076-7.076   C45.91,24.582,42.735,27.757,42.735,31.658z"/></g><g display="none"><g display="inline"><g><path fill="none" d="M32.649,11.212c-0.507,0-0.918,0.412-0.918,0.92c0,0.507,0.412,0.919,0.918,0.919     c0.512,0,0.924-0.412,0.924-0.919C33.574,11.624,33.158,11.212,32.649,11.212z"/></g><g><path fill="none" d="M44.439,20.138c0.315-0.381,0.526-0.911,0.469-1.442c-0.454,0.019-1.004,0.303-1.331,0.684     c-0.292,0.339-0.547,0.878-0.477,1.397C43.603,20.819,44.124,20.519,44.439,20.138z"/></g><g><path fill="none" d="M28.659,10.778c-0.745,0-1.354,0.604-1.354,1.354c0,0.75,0.609,1.354,1.354,1.354     c0.751,0,1.359-0.605,1.359-1.354C30.018,11.381,29.41,10.778,28.659,10.778z"/></g><g><path fill="none" d="M45.577,23.498c-0.012-1.146,0.932-1.693,0.974-1.721C46.02,21,45.193,20.893,44.897,20.88     c-0.701-0.073-1.37,0.416-1.728,0.416c-0.357,0-0.908-0.403-1.493-0.396c-0.765,0.015-1.473,0.446-1.869,1.135     c-0.797,1.385-0.204,3.433,0.573,4.552c0.381,0.551,0.834,1.17,1.428,1.146c0.573-0.023,0.789-0.37,1.481-0.37     c0.692,0,0.884,0.37,1.493,0.358c0.616-0.012,1.003-0.562,1.385-1.112c0.434-0.636,0.615-1.251,0.623-1.285     C46.774,25.321,45.59,24.863,45.577,23.498z"/></g><g><path fill="salmon" d="M58.259,28.545c-1.798,0-3.302-1.234-3.724-2.9c-0.041,0.001-0.08,0.006-0.121,0.006c-2.124,0-3.845-1.721-3.845-3.845     c0-0.007,0.001-0.012,0.001-0.019c-1.95-0.187-3.474-1.828-3.474-3.826c0-0.267,0.026-0.528,0.078-0.779     c-1.203-0.649-2.021-1.922-2.021-3.386c0-0.836,0.27-1.607,0.724-2.239c-0.504-0.65-0.807-1.464-0.807-2.35     c0-0.012,0.001-0.022,0.001-0.035h-18.02c-1.756,0-3.179,1.423-3.179,3.177v1.163h0.016v64.812h-0.016v1.162     c0,1.756,1.423,3.179,3.179,3.179h32.154c1.758,0,3.183-1.423,3.183-3.179v-0.77h0.006v-49.8     c-0.785-0.119-1.492-0.473-2.047-0.992C59.745,28.316,59.029,28.545,58.259,28.545z M43.577,19.38     c0.327-0.381,0.877-0.666,1.331-0.684c0.058,0.531-0.154,1.061-0.469,1.442c-0.315,0.38-0.836,0.681-1.339,0.639     C43.03,20.258,43.285,19.719,43.577,19.38z M28.659,13.487c-0.745,0-1.354-0.605-1.354-1.354c0-0.751,0.609-1.354,1.354-1.354     c0.751,0,1.359,0.604,1.359,1.354C30.018,12.882,29.41,13.487,28.659,13.487z M32.649,13.051c-0.507,0-0.918-0.412-0.918-0.919     c0-0.508,0.412-0.92,0.918-0.92c0.508,0,0.924,0.412,0.924,0.92C33.574,12.639,33.162,13.051,32.649,13.051z M46.167,26.61     c-0.382,0.55-0.77,1.1-1.385,1.112c-0.609,0.011-0.801-0.358-1.493-0.358c-0.693,0-0.908,0.347-1.481,0.37     c-0.593,0.023-1.046-0.596-1.428-1.146c-0.777-1.119-1.37-3.167-0.573-4.552c0.396-0.688,1.104-1.12,1.869-1.135     c0.585-0.007,1.136,0.396,1.493,0.396c0.358,0,1.027-0.489,1.728-0.416c0.296,0.013,1.123,0.12,1.654,0.896     c-0.042,0.028-0.985,0.575-0.974,1.721c0.013,1.365,1.197,1.823,1.213,1.827C46.782,25.359,46.601,25.975,46.167,26.61z"/></g><g><path fill="salmon" d="M53.653,12.679l-1.334-0.576c1.574-3.643,0.024-5.69,0.009-5.71l1.145-0.895C53.558,5.608,55.563,8.253,53.653,12.679z"/></g><g><path fill="salmon" d="M63.814,18.964c-3.576-1.59-5.629-0.127-5.715-0.064l-0.878-1.157c0.112-0.085,2.778-2.063,7.184-0.105L63.814,18.964z"/></g><g><path fill="salmon" d="M57.822,14.305l-1.05-1.003c0.124-0.131,3.106-3.215,7.493-4.543l0.421,1.39C60.677,11.361,57.851,14.276,57.822,14.305z"/></g></g></g></svg>