<svg xmlns="http://www.w3.org/2000/svg" xmlns:xlink="http://www.w3.org/1999/xlink" version="1.1" x="0px" y="0px" viewBox="0 0 100 100" enable-background="new 0 0 100 100" xml:space="preserve"><g><path fill="green" d="M63.334,13.666c0,4.791-3.877,8.667-8.667,8.667c-4.791,0-8.667-3.876-8.667-8.667C46,8.876,49.876,5,54.667,5   C59.457,5,63.334,8.876,63.334,13.666L63.334,13.666z M63.334,13.666"/><path fill="green" d="M74.896,50.67c-1.693-0.762-12.865-6.314-12.865-6.314s-3.961-8.446-6.01-13.067c-1.929-4.351-3.317-5.484-6.06-5.484   h-4.232c-2.217,0-3.029,0.812-4.384,1.574l-11.442,9.733c-1,0.575-1.643,1.438-2.031,2.657l-2.455,16.47   c-0.355,2.625,1.033,3.742,2.607,4.063c1.27,0.271,3.182-0.372,3.571-2.218c0.305-1.523,2.623-14.998,2.623-14.998l7.466-5.738   c-1.235,5.722-2.488,11.984-2.895,14.118c-0.711,3.64,1.1,6.398,2.539,8.564c1.303,1.964,18.197,28.592,20.415,31.485   c2.233,2.896,4.266,4.334,7.363,2.607c2.606-1.456,2.166-4.773,0.728-7.229S51.35,56.713,51.35,56.713l2.86-12.357   c0,0,1.98,2.827,2.996,4.418c0.49,0.746,0.999,1.05,2.336,1.777c1.574,0.864,9.209,4.334,11.527,5.384   c2.065,0.914,4.621,1.27,5.638-0.559C77.739,53.564,76.437,51.381,74.896,50.67L74.896,50.67z M74.896,50.67"/><path fill="green" d="M37.181,61.876l-3.453,12.171c0,0-7.211,10.428-9.209,13.339c-1.506,2.2-2.641,4.875-0.067,6.822   c2.895,2.183,5.214-0.661,6.703-2.354c1.371-1.54,6.957-9.344,8.531-11.325c1.05-1.337,1.625-2.453,2.083-3.571   c0.287-0.744,1.422-3.825,2.149-5.823L37.181,61.876z M37.181,61.876"/></g></svg>